<mxfile host="app.diagrams.net" modified="2023-06-13T02:46:46.718Z" agent="Mozilla/5.0 (Windows NT 10.0; Win64; x64) AppleWebKit/537.36 (KHTML, like Gecko) Chrome/110.0.0.0 Safari/537.36" version="21.3.5" etag="lkivnV3ZiJac4xrkrlmN" type="github">
  <diagram name="第 1 页" id="P1WjXa6PYNnW5OeByKQv">
    <mxGraphModel>
      <root>
        <mxCell id="0" />
        <mxCell id="1" parent="0" />
      </root>
    </mxGraphModel>
  </diagram>
</mxfile>
